<?xml version="1.0" encoding="UTF-8"?>
<!-- Uploaded to: SVG Repo, www.svgrepo.com, Generator: SVG Repo Mixer Tools -->
<svg class="icon" width="571.1" height="700" version="1.1" viewBox="0 0 731 896" xmlns="http://www.w3.org/2000/svg">
 <path d="m96.574 612.64v0.031l5.982 6.327c1.499 1.589 2.93 3.179 4.487 4.737h0.064l258.48 272.27 258.36-272.27c0.312-0.306 0.626-0.651 0.938-0.965l4.61-4.896 4.929-5.203v-0.031l0.184-0.218c62.157-67.736 96.389-155.43 96.389-246.92 0-201.53-163.97-365.5-365.47-365.5-201.57 0-365.53 163.97-365.53 365.5 0 91.427 34.226 179.12 96.383 246.92z" fill="#3bff25"/>
 <circle cx="368" cy="368.64" r="306.56" fill="#fff" stroke-opacity="0"/>
 <path d="m529.28 341.44c-10.24 0-19.84 1.92-29.44 5.12l-24.32-48 41.6-62.08c4.48-6.4 1.92-21.12-11.52-21.12h-53.12c-7.68 0-13.44 5.76-13.44 13.44s5.76 13.44 13.44 13.44h28.16l-28.16 42.24h-154.88c-6.4 0-10.88 5.76-10.88 5.76l-40.96 60.16c-11.52-5.76-24.96-8.96-39.04-8.96-49.92 0-90.24 40.32-90.24 90.24s40.32 90.24 90.88 90.24c44.8 0 82.56-33.28 88.96-76.8h73.6c7.68 0 10.88-6.4 10.88-6.4l76.8-115.2 18.56 35.2c-22.4 16.64-37.12 42.88-37.12 72.96 0 49.92 40.32 90.24 90.24 90.24s90.24-40.32 90.24-90.24-40.96-90.24-90.24-90.24zm-158.08 64-51.2-94.72h113.92zm-74.88-81.92 50.56 94.72h-51.2c-3.2-20.48-13.44-39.04-28.16-52.48zm-43.52 64.64c7.68 8.32 13.44 18.56 16 30.08h-36.48zm-45.44 106.24c-34.56 0-63.36-28.16-63.36-63.36s28.16-62.72 63.36-62.72c8.32 0 16 1.92 23.68 4.48l-34.56 51.2c-5.76 7.04-0.64 20.48 10.88 20.48h61.44c-6.4 28.8-32 49.92-61.44 49.92zm321.92 0c-34.56 0-63.36-28.16-63.36-63.36 0-19.2 8.96-37.12 23.04-48.64l28.8 55.04c3.2 5.12 10.88 8.96 18.56 5.76 6.4-2.56 8.96-11.52 5.76-17.92l-28.8-54.4c5.12-1.28 10.88-2.56 16.64-2.56 34.56 0 63.36 28.16 63.36 63.36s-28.8 62.72-64 62.72zm-256-231.68h49.28c7.68 0 13.44-5.76 13.44-13.44s-5.76-13.44-13.44-13.44h-49.28c-7.68 0-13.44 5.76-13.44 13.44-0.64 7.04 5.76 13.44 13.44 13.44z" stroke-width="32"/>
</svg>
