<?xml version="1.0" encoding="UTF-8"?>
<!-- Uploaded to: SVG Repo, www.svgrepo.com, Generator: SVG Repo Mixer Tools -->
<svg class="icon" width="571.1" height="700" version="1.1" viewBox="0 0 731 896" xmlns="http://www.w3.org/2000/svg">
 <path d="m96.574 612.64v0.031l5.982 6.327c1.499 1.589 2.93 3.179 4.487 4.737h0.064l258.48 272.27 258.36-272.27c0.312-0.306 0.626-0.651 0.938-0.965l4.61-4.896 4.929-5.203v-0.031l0.184-0.218c62.157-67.736 96.389-155.43 96.389-246.92 0-201.53-163.97-365.5-365.47-365.5-201.57 0-365.53 163.97-365.53 365.5 0 91.427 34.226 179.12 96.383 246.92z" fill="#ffdf25"/>
 <circle cx="368" cy="368.64" r="306.56" fill="#fff" stroke-opacity="0"/>
 <g transform="matrix(-1 0 0 1 621.5 102.62)" stroke-width="2">
  <path class="st0" d="m494.93 227.26h-35.293l-97.828-87.586h-138.85l-111.48 87.586-91.887 17.954c-11.263 1.434-19.593 10.991-19.593 22.255v69.017h60.697l0.502 2e-3v-2e-3h0.24c0-34.884 28.264-63.146 63.146-63.146 34.887 0 63.148 28.262 63.148 63.146h152.1l1.258 2e-3v-2e-3h0.24c0-34.884 28.264-63.146 63.146-63.146 34.885 0 63.146 28.262 63.146 63.146h44.375v-92.16c0-9.42-7.644-17.066-17.066-17.066zm-336.12-0.184 73.631-57.842h88.1l0.305 1e-3v58.026h-91.639zm189.34-57.843h3.211l44.576 39.936v18.09h-47.787z"/>
  <path class="st0" d="m404.48 300.65c-19.797 0-35.84 16.111-35.84 35.84 0 19.798 16.043 35.84 35.84 35.84 19.73 0 35.84-16.042 35.84-35.84 0-19.729-16.109-35.84-35.84-35.84z"/>
  <path class="st0" d="m124.59 300.65c-19.797 0-35.84 16.111-35.84 35.84 0 19.798 16.043 35.84 35.84 35.84 19.73 0 35.84-16.042 35.84-35.84 0-19.729-16.11-35.84-35.84-35.84z"/>
 </g>
</svg>
