<?xml version="1.0" encoding="UTF-8"?>
<!-- Uploaded to: SVG Repo, www.svgrepo.com, Generator: SVG Repo Mixer Tools -->
<svg class="icon" width="571.1" height="700" version="1.1" viewBox="0 0 731 896" xmlns="http://www.w3.org/2000/svg">
 <path d="m96.574 612.64v0.031l5.982 6.327c1.499 1.589 2.93 3.179 4.487 4.737h0.064l258.48 272.27 258.36-272.27c0.312-0.306 0.626-0.651 0.938-0.965l4.61-4.896 4.929-5.203v-0.031l0.184-0.218c62.157-67.736 96.389-155.43 96.389-246.92 0-201.53-163.97-365.5-365.47-365.5-201.57 0-365.53 163.97-365.53 365.5 0 91.427 34.226 179.12 96.383 246.92z" fill="#ff2525"/>
 <circle cx="368" cy="368.64" r="306.56" fill="#fff" stroke-opacity="0"/>
 <path d="m348.8 493.44c0 10.604 8.5958 19.2 19.2 19.2 10.604 0 19.2-8.5958 19.2-19.2zm19.2-96h19.2c0-5.0918-2.0237-9.9763-5.6237-13.576zm-67.2-67.2-12.643-14.45c-3.9994 3.4994-6.3694 8.4996-6.5462 13.811-0.17684 5.3111 1.8555 10.458 5.6129 14.215zm76.8-67.2 14.579-12.495c-3.337-3.892-8.0909-6.2884-13.204-6.6555-5.113-0.36711-10.161 1.3256-14.018 4.7011zm115.2 96c10.604 0 19.2-8.5958 19.2-19.2 0-10.604-8.5958-19.2-19.2-19.2zm-201.6 115.2c0 31.812-25.788 57.6-57.6 57.6v38.4c53.019 0 96-42.981 96-96zm-57.6 57.6c-31.812 0-57.6-25.788-57.6-57.6h-38.4c0 53.019 42.981 96 96 96zm-57.6-57.6c0-31.812 25.788-57.6 57.6-57.6v-38.4c-53.019 0-96 42.981-96 96zm57.6-57.6c31.812 0 57.6 25.788 57.6 57.6h38.4c0-53.019-42.981-96-96-96zm153.6 76.8v-96h-38.4v96zm-5.6237-109.58-67.2-67.2-27.153 27.153 67.2 67.2zm-68.133-39.174 76.8-67.2-25.286-28.899-76.8 67.2zm49.578-69.155c9.863 11.507 28.08 31.797 50.154 49.337 21.389 16.995 49.772 34.168 79.624 34.168v-38.4c-16.228 0-35.844-10.027-55.736-25.832-19.206-15.26-35.549-33.369-44.886-44.263zm196.98 198.7c0 31.812-25.788 57.6-57.6 57.6v38.4c53.019 0 96-42.981 96-96zm-57.6 57.6c-31.812 0-57.6-25.788-57.6-57.6h-38.4c0 53.019 42.981 96 96 96zm-57.6-57.6c0-31.812 25.788-57.6 57.6-57.6v-38.4c-53.019 0-96 42.981-96 96zm57.6-57.6c31.812 0 57.6 25.788 57.6 57.6h38.4c0-53.019-42.981-96-96-96zm-57.6-211.2v38.4c21.208 0 38.4-17.192 38.4-38.4zm0 0h-38.4c0 21.208 17.192 38.4 38.4 38.4zm0 0v-38.4c-21.208 0-38.4 17.192-38.4 38.4zm0 0h38.4c0-21.208-17.192-38.4-38.4-38.4z" stroke-width="42.667"/>
</svg>
